<svg width="16" height="16" viewBox="0 0 16 16" fill="none" xmlns="http://www.w3.org/2000/svg">
<path d="M8 1.5C4.41 1.5 1.5 4.41 1.5 8C1.5 11.59 4.41 14.5 8 14.5C11.59 14.5 14.5 11.59 14.5 8C14.5 4.41 11.59 1.5 8 1.5ZM13.46 7.5H11.23C11.16 6.13 10.85 4.84 10.35 3.74C11.99 4.43 13.18 5.82 13.46 7.5ZM8 13.5C7.4 13.5 6.62 12.12 6.27 10.5H9.73C9.38 12.12 8.6 13.5 8 13.5ZM6.11 9.5C6.04 8.99 6 8.5 6 8C6 7.5 6.04 7.01 6.11 6.5H9.89C9.96 7.01 10 7.5 10 8C10 8.5 9.96 8.99 9.89 9.5H6.11ZM2.54 8.5H4.77C4.84 9.87 5.15 11.16 5.65 12.26C4.01 11.57 2.82 10.18 2.54 8.5ZM4.77 7.5H2.54C2.82 5.82 4.01 4.43 5.65 3.74C5.15 4.84 4.84 6.13 4.77 7.5ZM8 2.5C8.6 2.5 9.38 3.88 9.73 5.5H6.27C6.62 3.88 7.4 2.5 8 2.5ZM10.35 12.26C10.85 11.16 11.16 9.87 11.23 8.5H13.46C13.18 10.18 11.99 11.57 10.35 12.26Z" fill="#18181B"/>
</svg>
